:SAMPLES-PER-SECOND 30
:FULLY-SPECIFIED
:DEGREES
1144
root  54.6075 39.0222 22.2666 179.179 -12.88 176.858
RightUpLeg  -2.28187 -23.3424 -17.7746
RightLeg  14.2555 -25.8197 -1.83856
RightFoot  -0.562839 -0.304842 3.19381
RightToes  5.82063e-011 0 -3.6325e-017
Spine  14.1793 1.98451 10.5945
Spine1  0.7385 6.17725 -15.0519
HEad  -13.0193 -5.50372 -20.9211
LeftShoulder1  0.255999 2.79095 -29.77
LeftArm  -14.3929 6.54999 -38.4556
LeftForeArm  -0.973439 -12.9505 -3.62634
LeftHand  0.237773 9.92745 7.10655
RightShoulder  -0.422464 -4.72199 27.7326
RightArm  29.1445 9.35804 53.0596
RightForeArm  1.40337 24.8861 5.24726
RightHand  -0.261963 4.28949 -3.4226
LeftUpLeg  -7.00813 16.8078 15.4454
LeftLeg  10.1353 15.9422 2.53841
LeftFoot  -1.44177 0.0543274 -0.537685
LeftToes  -1.20963e-009 8.6283e-011 2.04439e-011
1145
root  53.412 38.9382 22.4672 -179.752 -18.1698 176.598
RightUpLeg  -0.433972 -23.684 -20.5426
RightLeg  12.844 -28.338 -1.29021
RightFoot  -0.388099 -0.41831 4.32799
RightToes  5.82063e-011 0 -3.6325e-017
Spine  12.944 1.98643 10.7111
Spine1  1.36522 6.20214 -15.4213
HEad  -12.7854 -8.93173 -21.0087
LeftShoulder1  0.299889 2.66596 -29.6957
LeftArm  -14.2078 8.00567 -37.1366
LeftForeArm  -3.56848 -10.7306 -3.42983
LeftHand  0.190351 9.89327 5.97341
RightShoulder  -0.514709 -4.97465 28.1663
RightArm  29.4449 7.59856 50.794
RightForeArm  0.16995 23.1676 5.01178
RightHand  -0.290573 4.11797 -3.82785
LeftUpLeg  -7.45208 17.7895 14.5159
LeftLeg  9.07387 23.0096 2.16196
LeftFoot  -1.00746 -0.0187029 0.230451
LeftToes  -1.20963e-009 8.6283e-011 2.04439e-011
1146
root  52.098 38.8058 22.6821 -178.923 -23.6971 176.517
RightUpLeg  2.06162 -22.8199 -23.1065
RightLeg  11.0875 -31.0933 -0.694082
RightFoot  -0.368538 -0.590439 6.1149
RightToes  5.82063e-011 0 -3.6325e-017
Spine  12.1979 1.90268 11.4929
Spine1  1.63039 6.26966 -16.1365
HEad  -12.3144 -12.8126 -20.9294
LeftShoulder1  0.326687 2.58042 -29.2568
LeftArm  -13.0863 10.072 -35.9138
LeftForeArm  -4.38471 -10.13 -3.85815
LeftHand  0.244026 11.517 5.57848
RightShoulder  -0.505565 -4.93368 28.4962
RightArm  29.071 5.18691 48.1701
RightForeArm  0.435314 20.8887 5.16923
RightHand  -0.212653 4.49428 -2.78043
LeftUpLeg  -8.33367 17.7381 12.9145
LeftLeg  8.83063 24.6191 1.4208
LeftFoot  -0.0834727 0.376695 -3.60147
LeftToes  -1.20963e-009 8.6283e-011 2.04439e-011
1147
root  50.7137 38.6162 22.8776 -177.805 -29.1509 175.923
RightUpLeg  4.4209 -22.5739 -25.6996
RightLeg  9.78947 -31.1408 -0.645091
RightFoot  -1.37688 -0.6778 7.68568
RightToes  5.82063e-011 0 -3.6325e-017
Spine  11.4137 2.28701 10.9542
Spine1  1.78952 6.40447 -15.4637
HEad  -11.1854 -17.2607 -20.556
LeftShoulder1  0.216283 2.90004 -29.7408
LeftArm  -12.0367 11.2821 -34.3879
LeftForeArm  -1.10837 -9.40225 -4.22838
LeftHand  0.123862 11.1626 3.54306
RightShoulder  -0.443853 -4.76555 28.247
RightArm  26.9809 2.08753 45.5899
RightForeArm  2.48574 18.1033 5.95381
RightHand  -0.181243 3.68352 -2.57342
LeftUpLeg  -9.97917 18.7664 10.526
LeftLeg  8.95114 21.277 -0.233211
LeftFoot  3.64569 0.822047 -6.55908
LeftToes  -1.20963e-009 8.6283e-011 2.04439e-011
1148
root  49.3641 38.4518 23.0676 -176.306 -35.0518 173.994
RightUpLeg  7.18102 -22.3988 -28.9065
RightLeg  8.87982 -28.2235 -1.07223
RightFoot  -4.68462 -0.528594 8.56868
RightToes  5.82063e-011 0 -3.6325e-017
Spine  11.4172 2.51517 8.64918
Spine1  1.71761 6.13154 -13.971
HEad  -10.3723 -21.7761 -20.2344
LeftShoulder1  0.112585 3.19598 -30.3869
LeftArm  -10.5843 11.7426 -32.2349
LeftForeArm  1.54234 -9.02939 -4.83113
LeftHand  -0.00990715 10.536 1.03451
RightShoulder  -0.498576 -4.90714 28.6439
RightArm  22.7491 -0.474731 43.3691
RightForeArm  8.25319 14.3119 6.9593
RightHand  -0.113544 3.20713 -1.77941
LeftUpLeg  -13.0398 21.7572 5.4257
LeftLeg  11.7368 11.7446 -0.631805
LeftFoot  4.8037 0.503451 -3.68362
LeftToes  -1.20963e-009 8.6283e-011 2.04439e-011
1149
root  48.0357 38.3075 23.2579 -174.968 -42.3435 172.238
RightUpLeg  9.87445 -20.6386 -30.2003
RightLeg  8.56492 -22.0309 -2.47127
RightFoot  -9.38763 -0.200149 7.06973
RightToes  5.82063e-011 0 -3.6325e-017
Spine  11.222 2.00462 7.0863
Spine1  2.05785 5.16757 -12.2575
HEad  -9.28015 -25.9219 -20.1958
LeftShoulder1  0.157412 3.07617 -30.7145
LeftArm  -10.1566 11.7314 -30.908
LeftForeArm  3.66993 -8.42937 -4.96768
LeftHand  -0.0555999 10.4058 0.0227012
RightShoulder  -0.62843 -5.26583 28.9385
RightArm  15.7045 -2.62315 42.6263
RightForeArm  16.1408 9.07633 7.20098
RightHand  -0.00830212 2.992 -0.331347
LeftUpLeg  -16.7981 22.2966 -0.59109
LeftLeg  16.6231 4.16287 1.46615
LeftFoot  2.26229 0.0803144 -0.793734
LeftToes  -1.20963e-009 8.6283e-011 2.04439e-011
